<svg id="visual" viewBox="0 0 1920 1080" width="1920" height="1080" xmlns="http://www.w3.org/2000/svg" xmlns:xlink="http://www.w3.org/1999/xlink" version="1.1"><path d="M0 77L40 93.2C80 109.3 160 141.7 240 143.3C320 145 400 116 480 125C560 134 640 181 720 184.7C800 188.3 880 148.7 960 157.7C1040 166.7 1120 224.3 1200 217.2C1280 210 1360 138 1440 109.2C1520 80.3 1600 94.7 1680 92.8C1760 91 1840 73 1880 64L1920 55L1920 0L1880 0C1840 0 1760 0 1680 0C1600 0 1520 0 1440 0C1360 0 1280 0 1200 0C1120 0 1040 0 960 0C880 0 800 0 720 0C640 0 560 0 480 0C400 0 320 0 240 0C160 0 80 0 40 0L0 0Z" fill="#e981a8"></path><path d="M0 401L40 442.3C80 483.7 160 566.3 240 537.5C320 508.7 400 368.3 480 348.5C560 328.7 640 429.3 720 449.2C800 469 880 408 960 399C1040 390 1120 433 1200 416.7C1280 400.3 1360 324.7 1440 351.7C1520 378.7 1600 508.3 1680 528.2C1760 548 1840 458 1880 413L1920 368L1920 53L1880 62C1840 71 1760 89 1680 90.8C1600 92.7 1520 78.3 1440 107.2C1360 136 1280 208 1200 215.2C1120 222.3 1040 164.7 960 155.7C880 146.7 800 186.3 720 182.7C640 179 560 132 480 123C400 114 320 143 240 141.3C160 139.7 80 107.3 40 91.2L0 75Z" fill="#e26393"></path><path d="M0 573L40 589.3C80 605.7 160 638.3 240 618.7C320 599 400 527 480 528.7C560 530.3 640 605.7 720 602C800 598.3 880 515.7 960 519.3C1040 523 1120 613 1200 598.7C1280 584.3 1360 465.7 1440 490.8C1520 516 1600 685 1680 708.3C1760 731.7 1840 609.3 1880 548.2L1920 487L1920 366L1880 411C1840 456 1760 546 1680 526.2C1600 506.3 1520 376.7 1440 349.7C1360 322.7 1280 398.3 1200 414.7C1120 431 1040 388 960 397C880 406 800 467 720 447.2C640 427.3 560 326.7 480 346.5C400 366.3 320 506.7 240 535.5C160 564.3 80 481.7 40 440.3L0 399Z" fill="#da3f7d"></path><path d="M0 876L40 874.2C80 872.3 160 868.7 240 879.5C320 890.3 400 915.7 480 912C560 908.3 640 875.7 720 855.8C800 836 880 829 960 856C1040 883 1120 944 1200 940.3C1280 936.7 1360 868.3 1440 872C1520 875.7 1600 951.3 1680 956.8C1760 962.3 1840 897.7 1880 865.3L1920 833L1920 485L1880 546.2C1840 607.3 1760 729.7 1680 706.3C1600 683 1520 514 1440 488.8C1360 463.7 1280 582.3 1200 596.7C1120 611 1040 521 960 517.3C880 513.7 800 596.3 720 600C640 603.7 560 528.3 480 526.7C400 525 320 597 240 616.7C160 636.3 80 603.7 40 587.3L0 571Z" fill="#bd356c"></path><path d="M0 1081L40 1081C80 1081 160 1081 240 1081C320 1081 400 1081 480 1081C560 1081 640 1081 720 1081C800 1081 880 1081 960 1081C1040 1081 1120 1081 1200 1081C1280 1081 1360 1081 1440 1081C1520 1081 1600 1081 1680 1081C1760 1081 1840 1081 1880 1081L1920 1081L1920 831L1880 863.3C1840 895.7 1760 960.3 1680 954.8C1600 949.3 1520 873.7 1440 870C1360 866.3 1280 934.7 1200 938.3C1120 942 1040 881 960 854C880 827 800 834 720 853.8C640 873.7 560 906.3 480 910C400 913.7 320 888.3 240 877.5C160 866.7 80 870.3 40 872.2L0 874Z" fill="#a12c5b"></path></svg>